<svg width="28" height="32" viewBox="0 0 28 32" fill="none" xmlns="http://www.w3.org/2000/svg">
<path d="M19.6653 0C17.9593 0.117999 15.9653 1.20999 14.8034 2.63198C13.7434 3.92197 12.8714 5.83796 13.2114 7.69995C15.0754 7.75795 17.0013 6.63996 18.1173 5.19397C19.1613 3.84797 19.9513 1.94399 19.6653 0Z" fill="black"/>
<path d="M26.4071 10.736C24.7691 8.68198 22.4671 7.48999 20.2931 7.48999C17.4231 7.48999 16.2091 8.86398 14.2152 8.86398C12.1592 8.86398 10.5972 7.49399 8.11519 7.49399C5.67721 7.49399 3.08123 8.98398 1.43524 11.532C-0.878744 15.1199 -0.482747 21.8659 3.26723 27.6119C4.60922 29.6678 6.40121 31.9798 8.74519 31.9998C10.8312 32.0198 11.4192 30.6618 14.2452 30.6478C17.0711 30.6318 17.6071 32.0178 19.6891 31.9958C22.0351 31.9778 23.9251 29.4158 25.2671 27.3599C26.2291 25.8859 26.5871 25.1439 27.3331 23.4799C21.9071 21.4139 21.0371 13.6979 26.4071 10.736Z" fill="black"/>
</svg>
