<svg width="32" height="32" viewBox="0 0 32 32" fill="none" xmlns="http://www.w3.org/2000/svg">
<g clip-path="url(#clip0_3045_6785)">
<path d="M30.7914 13.2182L17.7389 13.2175C17.1625 13.2175 16.6953 13.6847 16.6953 14.261V18.4307C16.6953 19.007 17.1625 19.4742 17.7388 19.4742H25.0892C24.2843 21.563 22.7821 23.3123 20.8654 24.4238L23.9996 29.8494C29.0273 26.9417 31.9996 21.8399 31.9996 16.1288C31.9996 15.3156 31.9397 14.7343 31.8198 14.0797C31.7287 13.5824 31.2969 13.2182 30.7914 13.2182Z" fill="#167EE6"/>
<path d="M16.0017 25.7392C12.4045 25.7392 9.26428 23.7738 7.57772 20.8655L2.15234 23.9926C4.91328 28.7777 10.0854 32 16.0017 32C18.904 32 21.6425 31.2186 24.0017 29.8568V29.8494L20.8675 24.4237C19.4338 25.2552 17.7748 25.7392 16.0017 25.7392Z" fill="#12B347"/>
<path d="M24 29.8566V29.8492L20.8658 24.4236C19.4322 25.255 17.7733 25.739 16 25.739V31.9999C18.9023 31.9999 21.641 31.2185 24 29.8566Z" fill="#0F993E"/>
<path d="M6.26088 15.9999C6.26088 14.2268 6.74475 12.568 7.57606 11.1344L2.15069 8.00732C0.781375 10.359 0 13.0901 0 15.9999C0 18.9096 0.781375 21.6408 2.15069 23.9924L7.57606 20.8653C6.74475 19.4318 6.26088 17.7729 6.26088 15.9999Z" fill="#FFD500"/>
<path d="M16.0017 6.26088C18.3473 6.26088 20.502 7.09437 22.1849 8.48081C22.6001 8.82281 23.2035 8.79813 23.5838 8.41781L26.5382 5.46344C26.9697 5.03194 26.939 4.32562 26.478 3.92575C23.6583 1.47956 19.9896 0 16.0017 0C10.0854 0 4.91328 3.22231 2.15234 8.00744L7.57772 11.1346C9.26428 8.22625 12.4045 6.26088 16.0017 6.26088Z" fill="#FF4B26"/>
<path d="M22.1833 8.48081C22.5984 8.82281 23.2019 8.79813 23.5822 8.41781L26.5366 5.46344C26.968 5.03194 26.9373 4.32562 26.4764 3.92575C23.6567 1.4795 19.9879 0 16 0V6.26088C18.3456 6.26088 20.5003 7.09437 22.1833 8.48081Z" fill="#D93F21"/>
</g>
<defs>
<clipPath id="clip0_3045_6785">
<rect width="32" height="32" fill="white"/>
</clipPath>
</defs>
</svg>
