<svg width="120" height="120" viewBox="0 0 120 120" fill="none" xmlns="http://www.w3.org/2000/svg">
<path d="M16 37.9961V15.9961H38C40.648 15.9961 40.644 11.9961 38 11.9961H14C12.896 11.9961 12 12.8921 12 13.9961V37.9961C12 40.6441 16 40.6401 16 37.9961Z" fill="#020716" fill-opacity="0.8"/>
<path d="M38 104.004H16V82.004C16 79.356 12 79.36 12 82.004V106.004C12 107.108 12.896 108.004 14 108.004H38C40.648 108.004 40.644 104.004 38 104.004Z" fill="#020716" fill-opacity="0.8"/>
<path d="M108 13.9961C108 12.8921 107.104 11.9961 106 11.9961H82.0001C79.3521 11.9961 79.3561 15.9961 82.0001 15.9961H104V37.9961C104 40.6441 108 40.6401 108 37.9961V13.9961Z" fill="#020716" fill-opacity="0.8"/>
<path d="M104 82.004V104.004H82.0001C79.3521 104.004 79.3561 108.004 82.0001 108.004H106C107.104 108.004 108 107.108 108 106.004V82.004C108 79.356 104 79.36 104 82.004Z" fill="#020716" fill-opacity="0.8"/>
<path d="M32 37.9961C32 39.1001 32.896 39.9961 34 39.9961H38C39.104 39.9961 40 39.1001 40 37.9961V33.9961C40 32.8921 39.104 31.9961 38 31.9961H34C32.896 31.9961 32 32.8921 32 33.9961V37.9961Z" fill="#020716" fill-opacity="0.8"/>
<path d="M26 23.9961C24.896 23.9961 24 24.8921 24 25.9961V45.9961C24 47.1001 24.896 47.9961 26 47.9961H46C47.104 47.9961 48 47.1001 48 45.9961V25.9961C48 24.8921 47.104 23.9961 46 23.9961H26ZM28 27.9961H44V43.9961H28V27.9961Z" fill="#020716" fill-opacity="0.8"/>
<path d="M40 81.9961C40 80.8921 39.104 79.9961 38 79.9961H34C32.896 79.9961 32 80.8921 32 81.9961V85.9961C32 87.1001 32.896 87.9961 34 87.9961H38C39.104 87.9961 40 87.1001 40 85.9961V81.9961Z" fill="#020716" fill-opacity="0.8"/>
<path d="M48 73.9961C48 72.8921 47.104 71.9961 46 71.9961H26C24.896 71.9961 24 72.8921 24 73.9961V93.9961C24 95.1001 24.896 95.9961 26 95.9961H46C47.104 95.9961 48 95.1001 48 93.9961V73.9961ZM44 91.9961H28V75.9961H44V91.9961Z" fill="#020716" fill-opacity="0.8"/>
<path d="M80 37.9961C80 39.1001 80.896 39.9961 82 39.9961H86C87.104 39.9961 88 39.1001 88 37.9961V33.9961C88 32.8921 87.104 31.9961 86 31.9961H82C80.896 31.9961 80 32.8921 80 33.9961V37.9961Z" fill="#020716" fill-opacity="0.8"/>
<path d="M72 45.9961C72 47.1001 72.896 47.9961 74 47.9961H94C95.104 47.9961 96 47.1001 96 45.9961V25.9961C96 24.8921 95.104 23.9961 94 23.9961H74C72.896 23.9961 72 24.8921 72 25.9961V45.9961ZM76 27.9961H92V43.9961H76V27.9961Z" fill="#020716" fill-opacity="0.8"/>
<path d="M38.0001 67.996C38.4361 67.996 54.5921 67.996 54.0001 67.996C56.6481 67.996 56.6441 63.996 54.0001 63.996H48.0001V57.996C48.0001 55.348 44.0001 55.352 44.0001 57.996V63.996H38.0001C35.3521 63.996 35.3561 67.996 38.0001 67.996Z" fill="#020716" fill-opacity="0.8"/>
<path d="M56 29.996V25.996C56 23.348 52 23.352 52 25.996V29.996C52 32.644 56 32.64 56 29.996Z" fill="#020716" fill-opacity="0.8"/>
<path d="M54.0001 39.9961H62.0001C63.1041 39.9961 64.0001 39.1001 64.0001 37.9961V31.9961H66.0001C68.6481 31.9961 68.6441 27.9961 66.0001 27.9961H62.0001C60.8961 27.9961 60.0001 28.8921 60.0001 29.9961V35.9961H54.0001C51.3521 35.9961 51.3561 39.9961 54.0001 39.9961Z" fill="#020716" fill-opacity="0.8"/>
<path d="M54.0001 59.9961H62.0001C64.6481 59.9961 64.6441 55.9961 62.0001 55.9961H60.0001V47.9961H66.0001C68.6481 47.9961 68.6441 43.9961 66.0001 43.9961H58.0001C56.8961 43.9961 56.0001 44.8921 56.0001 45.9961V55.9961H54.0001C51.3521 55.9961 51.3561 59.9961 54.0001 59.9961Z" fill="#020716" fill-opacity="0.8"/>
<path d="M68 57.9962C68 60.6442 72 60.6402 72 57.9962V53.9962C72 51.3482 68 51.3522 68 53.9962V57.9962Z" fill="#020716" fill-opacity="0.8"/>
<path d="M56 79.9962H60V81.9962C60 84.6442 64 84.6402 64 81.9962V69.9962C64 67.3482 60 67.3522 60 69.9962V75.9962H54C52.896 75.9962 52 76.8922 52 77.9962V81.9962C52 84.6442 56 84.6402 56 81.9962V79.9962Z" fill="#020716" fill-opacity="0.8"/>
<path d="M72.0001 81.9962V83.9962H70.0001C68.8961 83.9962 68.0001 84.8922 68.0001 85.9962V91.9962H58.0001C55.3521 91.9962 55.3561 95.9962 58.0001 95.9962H70.0001C71.1041 95.9962 72.0001 95.1002 72.0001 93.9962V87.9962H74.0001C75.1041 87.9962 76.0001 87.1002 76.0001 85.9962V81.9962C76.0001 79.3482 72.0001 79.3522 72.0001 81.9962Z" fill="#020716" fill-opacity="0.8"/>
<path d="M84.0001 85.9962V91.9962H82.0001C79.3521 91.9962 79.3561 95.9962 82.0001 95.9962H94.0001C96.6481 95.9962 96.6441 91.9962 94.0001 91.9962H88.0001V85.9962C88.0001 83.3482 84.0001 83.3522 84.0001 85.9962Z" fill="#020716" fill-opacity="0.8"/>
<path d="M96.0001 73.9961C96.0001 72.8921 95.1041 71.9961 94.0001 71.9961H82.0001C79.3521 71.9961 79.3561 75.9961 82.0001 75.9961H92.0001V82.0041C92.0001 84.6521 96.0001 84.6481 96.0001 82.0041V73.9961Z" fill="#020716" fill-opacity="0.8"/>
<path d="M96.0001 57.996C96.0001 55.348 92.0001 55.352 92.0001 57.996V63.996H90.0001C87.3521 63.996 87.3561 67.996 90.0001 67.996H94.0001C95.1041 67.996 96.0001 67.1 96.0001 65.996V57.996Z" fill="#020716" fill-opacity="0.8"/>
<path d="M84.0001 65.9961V55.9961H86.0001C88.6481 55.9961 88.6441 51.9961 86.0001 51.9961H82.0001C80.8961 51.9961 80.0001 52.8921 80.0001 53.9961V63.9961H74.0001C72.8961 63.9961 72.0001 64.8921 72.0001 65.9961V71.9961H70.0001C67.3521 71.9961 67.3561 75.9961 70.0001 75.9961H74.0001C75.1041 75.9961 76.0001 75.1001 76.0001 73.9961V67.9961H82.0001C83.1041 67.9961 84.0001 67.1001 84.0001 65.9961Z" fill="#020716" fill-opacity="0.8"/>
<path d="M24 53.9962C24 54.5922 24 66.5762 24 65.9962C24 68.6442 28 68.6402 28 65.9962V59.9962H34C36.648 59.9962 36.644 55.9962 34 55.9962H28V53.9962C28 51.3482 24 51.3522 24 53.9962Z" fill="#020716" fill-opacity="0.8"/>
</svg>
